<svg width="28" height="28" viewBox="0 0 28 28" fill="none" xmlns="http://www.w3.org/2000/svg">
<path d="M14 2.33334C12.4679 2.33334 10.9508 2.63511 9.53534 3.22142C8.11987 3.80772 6.83375 4.66708 5.7504 5.75043C3.56248 7.93836 2.33331 10.9058 2.33331 14C2.33331 19.1567 5.68165 23.5317 10.3133 25.0833C10.8966 25.1767 11.0833 24.815 11.0833 24.5V22.5283C7.85165 23.2283 7.16331 20.965 7.16331 20.965C6.62665 19.6117 5.86831 19.25 5.86831 19.25C4.80665 18.5267 5.94998 18.55 5.94998 18.55C7.11665 18.6317 7.73498 19.7517 7.73498 19.7517C8.74998 21.525 10.465 21 11.13 20.72C11.235 19.9617 11.5383 19.4483 11.865 19.1567C9.27498 18.865 6.55665 17.8617 6.55665 13.4167C6.55665 12.1217 6.99998 11.0833 7.75831 10.255C7.64165 9.96334 7.23331 8.75001 7.87498 7.17501C7.87498 7.17501 8.85498 6.86001 11.0833 8.36501C12.005 8.10834 13.0083 7.98001 14 7.98001C14.9916 7.98001 15.995 8.10834 16.9166 8.36501C19.145 6.86001 20.125 7.17501 20.125 7.17501C20.7666 8.75001 20.3583 9.96334 20.2416 10.255C21 11.0833 21.4433 12.1217 21.4433 13.4167C21.4433 17.8733 18.7133 18.8533 16.1116 19.145C16.5316 19.5067 16.9166 20.2183 16.9166 21.3033V24.5C16.9166 24.815 17.1033 25.1883 17.6983 25.0833C22.33 23.52 25.6666 19.1567 25.6666 14C25.6666 12.4679 25.3649 10.9508 24.7786 9.53537C24.1923 8.1199 23.3329 6.83378 22.2496 5.75043C21.1662 4.66708 19.8801 3.80772 18.4646 3.22142C17.0492 2.63511 15.5321 2.33334 14 2.33334Z" fill="black"/>
</svg>
